<svg width="246" height="137" viewBox="0 0 246 137" fill="none" xmlns="http://www.w3.org/2000/svg">
<g clip-path="url(#clip0_8428_17898)">
<mask id="mask0_8428_17898" style="mask-type:alpha" maskUnits="userSpaceOnUse" x="0" y="14" width="245" height="107">
<rect x="0.970703" y="14.6006" width="243.978" height="106.225" fill="url(#paint0_linear_8428_17898)"/>
</mask>
<g mask="url(#mask0_8428_17898)">
<path d="M214.37 28.5517L200.58 23.9451L143.788 24.1228L133.957 20.5912L125.638 24.0467L90.0935 23.9493L76.0092 17.4912H55.5303L52.3626 23.9472H34.5139L0.970703 77.3642L38.3101 119.511H207.689L245.029 77.3642L214.368 28.5496L214.37 28.5517ZM206.828 117.6H39.1713L3.35335 77.1695L35.5741 25.858H53.5582L56.7238 19.402H75.5924L89.6724 25.858L126.017 25.9574L134.005 22.6374L143.455 26.0336L200.271 25.8559L213.113 30.145L242.646 77.1653L206.828 117.596V117.6Z" fill="url(#paint1_linear_8428_17898)"/>
</g>
<path d="M242.649 77.1689L206.828 117.598H39.1715L3.35352 77.1689L35.5742 25.8574H53.5583L56.7239 19.4014H75.5925L89.6747 25.8574L126.017 25.9589L134.005 22.6389L143.456 26.0351L200.271 25.8574L213.113 30.1487L242.649 77.1689Z" fill="url(#paint2_linear_8428_17898)"/>
<path d="M242.644 77.1697L213.115 30.1495L200.269 25.8603L143.458 26.0338L134.007 22.6376L126.015 25.9576L89.6724 25.8603L75.5924 19.4043H56.7259L53.5603 25.8603H35.5783L3.35547 77.1697H24.903L41.1435 89.2416H67.4457L71.3836 77.1697H88.4451L92.3661 60.0891H96.2575L101.514 57.7996L100.411 69.3912L114.944 77.1697H242.644Z" fill="#4A357D"/>
<path d="M14.7656 70.8616H33.1221L36.2771 64.8098H28.1368L33.8966 54.7121L43.3341 51.2757L46.3156 45.5624L37.333 48.6878L42.1131 40.3062L39.2967 36.0509H44.5423H51.2755L53.3006 32.168H39.0661L14.7656 70.8616Z" fill="white"/>
<path d="M60.6602 25.71L50.0039 47.4542L62.9244 55.1227L67.9943 57.7424L60.3216 61.9088L54.9067 76.0206H46.2162L55.5098 54.5366L48.5671 50.3849L35.4414 77.1633L43.2263 82.9337H62.8693L72.6009 53.0892L59.3017 45.7699L66.4602 29.2226H72.8591L77.2139 31.0529L71.0541 33.9286L66.8496 44.8917L74.0166 48.7429L80.5678 28.6512L74.207 25.71H60.6602Z" fill="white"/>
<path d="M84.6153 32.168L73.502 70.8616H83.4198L87.3429 53.7811H94.9437L104.385 49.6696L106.135 35.4626L98.8477 32.168H84.6132H84.6153ZM97.3601 40.4184L95.8366 48.8507H88.4771L91.4162 36.0488H98.1494L103.118 38.0696L97.3601 40.4162V40.4184Z" fill="white"/>
<path d="M110.287 32.168L107.088 65.8107L116.525 70.8616H134.882L132.442 35.4626L124.524 32.168H110.289H110.287ZM124.657 44.0727L124.894 64.8077H116.754L117.835 36.0488H124.568L129.742 38.0696L124.659 44.0727H124.657Z" fill="white"/>
<path d="M137.871 35.4774L141.712 70.8616H151.629L148.792 53.7811H156.393L160.066 70.8616H169.986L165.536 54.5365L159.698 52.065L164.209 49.6696L159.438 32.168H145.203L137.871 35.4774V35.4774ZM155.335 48.8507H147.975L146.583 40.4628L140.84 38.0717L145.849 36.0509H152.582L155.335 48.8528V48.8507Z" fill="white"/>
<path d="M163.116 36.0509H169.746L181.577 70.8616H191.497L179.334 40.2554L172.387 36.0043H184.169L182.463 32.168H161.984L163.116 36.0509Z" fill="white"/>
<path d="M217.345 48.7428L208.976 35.4182L199.242 32.168H185.008L192.101 47.4541L212.336 55.1226L217.863 64.8098H209.721L204.365 54.5365L193.459 50.3848L200.616 65.8107L212.878 70.8616H231.235L220.072 53.0891L199.792 45.7698L196.951 40.3189L189.483 36.0509H201.458L206.5 44.8916L217.345 48.7428Z" fill="white"/>
<path d="M134.34 27.5322C133.301 28.5458 132.125 29.4853 130.832 30.3381C132.246 31.1993 133.589 32.1811 134.844 33.2667C135.908 32.1811 137.081 31.1993 138.342 30.3381C136.899 29.4853 135.557 28.5458 134.34 27.5322Z" fill="#E2D45C"/>
<path d="M25.9519 66.0785L31.9085 55.6338C29.6994 55.8856 27.5093 56.1437 25.3383 56.4125L17.0625 69.5911H32.3529L34.1833 66.0785H25.9519V66.0785Z" fill="url(#paint3_linear_8428_17898)"/>
<path d="M68.6601 52.3691C66.2944 52.5236 63.9435 52.6887 61.6074 52.8643L63.5415 54.0112L69.8959 57.2931L71.0682 53.6938L68.6601 52.3691V52.3691ZM61.3387 62.799L55.782 77.2896H44.2856L53.9051 55.0544L51.5902 53.6705C50.4644 53.7678 49.3408 53.8673 48.2236 53.971L37.0488 76.7712L43.6466 81.6634H61.9481L69.5531 58.3406L61.3387 62.799V62.799Z" fill="url(#paint4_linear_8428_17898)"/>
<path d="M98.3386 50.9199L94.6842 52.5112H86.3365L82.4134 69.5917H75.1914L80.3355 51.6796C86.2561 51.3685 92.2593 51.1146 98.3386 50.9199Z" fill="url(#paint5_linear_8428_17898)"/>
<path d="M133.521 69.5914H116.845L108.432 65.0907L109.809 50.6192C111.872 50.5768 113.942 50.543 116.02 50.5155L115.436 66.0788H126.179L126.001 50.4329C126.951 50.4308 127.903 50.4287 128.858 50.4287C129.975 50.4287 131.09 50.4308 132.201 50.4351L133.521 69.5914V69.5914Z" fill="url(#paint6_linear_8428_17898)"/>
<path d="M168.324 69.5916H161.091L157.418 52.511H147.293L150.13 69.5916H142.849L140.777 50.5029C146.973 50.5791 153.103 50.7167 159.159 50.9113L156.745 52.1936L164.473 55.465L168.324 69.5916V69.5916Z" fill="url(#paint7_linear_8428_17898)"/>
<path d="M182.623 51.9686C180.553 51.848 178.473 51.7337 176.383 51.6279L182.488 69.5909H189.627L182.623 51.9686Z" fill="url(#paint8_linear_8428_17898)"/>
<path d="M219.762 54.9757C217.64 54.7535 215.503 54.5377 213.349 54.3303L220.052 66.0785H208.954L203.465 55.5513L196.475 52.8893C196.319 52.8766 196.164 52.866 196.008 52.8555L201.562 64.8258L213.131 69.5911H228.942L219.762 54.9757V54.9757Z" fill="url(#paint9_linear_8428_17898)"/>
<path fill-rule="evenodd" clip-rule="evenodd" d="M102.113 99.3348V96.7236L94.8996 99.4068H94.8848V102.086H94.8996L102.113 104.769V102.153L98.4164 100.74L102.113 99.3348V99.3348Z" fill="#996DFF"/>
<path fill-rule="evenodd" clip-rule="evenodd" d="M143.896 104.634V102.023L147.591 100.618L143.896 99.2125V96.6013L151.099 99.2823H151.116V101.963H151.099L143.896 104.632V104.634ZM140.803 92.9131L136.566 106.511H139.082L143.319 92.9131H140.803Z" fill="#996DFF"/>
<path fill-rule="evenodd" clip-rule="evenodd" d="M112.711 96.2308C113.426 97.018 113.803 98.0549 113.759 99.1171V104.909H111.243V99.6482C111.272 99.0621 111.084 98.4865 110.718 98.0295C110.369 97.6232 109.852 97.3989 109.317 97.4222C107.743 97.4222 106.953 98.514 106.953 100.7V104.911H104.438V95.4014H106.953V96.2605C107.751 95.4839 108.835 95.0713 109.948 95.1178C110.984 95.0734 111.992 95.4796 112.709 96.2308H112.711Z" fill="white"/>
<path fill-rule="evenodd" clip-rule="evenodd" d="M116.961 91.4463V105.044H119.477V91.4463H116.961Z" fill="white"/>
<path fill-rule="evenodd" clip-rule="evenodd" d="M133.692 104.547H131.593L129.536 98.9457L127.46 104.547H125.365L121.84 95.0205H124.527L126.508 100.717L128.55 95.0205H130.511L132.553 100.736L134.534 95.0205H137.221L133.692 104.547V104.547Z" fill="white"/>
<path d="M11.2272 22.2014C14.0753 15.3222 19.8267 9.9009 28.3162 6.08993C36.4502 2.43767 46.7573 0.406288 58.9478 0.0550274C83.938 -0.666538 114.106 5.72809 143.889 18.0666C146.031 18.9533 148.153 19.8631 150.252 20.7963L147.283 20.8048C146.01 20.2525 144.725 19.7087 143.43 19.1733C82.4103 -6.10049 23.5996 -4.53675 12.3338 22.6605C9.07093 30.5364 10.148 39.7094 14.8075 49.3838C26.2319 73.1214 59.2144 99.8701 102.568 117.827C106.762 119.564 110.96 121.181 115.152 122.677C140.584 131.759 165.703 136.361 187.016 135.745C199.05 135.398 209.2 133.403 217.191 129.816C225.394 126.134 230.936 120.927 233.664 114.339C236.125 108.396 236.116 101.713 233.96 94.6329L234.881 93.594C237.407 101.398 237.373 108.523 234.773 114.799C231.922 121.678 226.173 127.099 217.681 130.91C209.547 134.562 199.242 136.594 187.052 136.945C185.778 136.981 184.492 137 183.192 137C161.708 137 136.754 131.991 111.647 122.677C108.467 121.498 105.287 120.25 102.108 118.933C72.3253 106.597 46.4717 89.7894 29.3107 71.6063C22.5627 64.4563 17.4504 57.4015 14.0626 50.5688C13.2458 48.9247 12.5306 47.2953 11.917 45.6808C8.60964 36.9818 8.37687 29.0827 11.2272 22.2014V22.2014Z" fill="url(#paint10_linear_8428_17898)"/>
<path d="M11.2272 22.2014C14.0753 15.3222 19.8267 9.9009 28.3162 6.08993C36.4502 2.43767 46.7573 0.406288 58.9478 0.0550274C83.938 -0.666538 114.106 5.72809 143.889 18.0666C146.031 18.9533 148.153 19.8631 150.252 20.7963L147.283 20.8048C146.01 20.2525 144.725 19.7087 143.43 19.1733C82.4103 -6.10049 23.5996 -4.53675 12.3338 22.6605C9.07093 30.5364 10.148 39.7094 14.8075 49.3838C26.2319 73.1214 59.2144 99.8701 102.568 117.827C106.762 119.564 110.96 121.181 115.152 122.677C140.584 131.759 165.703 136.361 187.016 135.745C199.05 135.398 209.2 133.403 217.191 129.816C225.394 126.134 230.936 120.927 233.664 114.339C236.125 108.396 236.116 101.713 233.96 94.6329L234.881 93.594C237.407 101.398 237.373 108.523 234.773 114.799C231.922 121.678 226.173 127.099 217.681 130.91C209.547 134.562 199.242 136.594 187.052 136.945C185.778 136.981 184.492 137 183.192 137C161.708 137 136.754 131.991 111.647 122.677C108.467 121.498 105.287 120.25 102.108 118.933C72.3253 106.597 46.4717 89.7894 29.3107 71.6063C22.5627 64.4563 17.4504 57.4015 14.0626 50.5688C13.2458 48.9247 12.5306 47.2953 11.917 45.6808C8.60964 36.9818 8.37687 29.0827 11.2272 22.2014V22.2014Z" fill="url(#paint11_radial_8428_17898)"/>
<path d="M11.2272 22.2014C14.0753 15.3222 19.8267 9.9009 28.3162 6.08993C36.4502 2.43767 46.7573 0.406288 58.9478 0.0550274C83.938 -0.666538 114.106 5.72809 143.889 18.0666C146.031 18.9533 148.153 19.8631 150.252 20.7963L147.283 20.8048C146.01 20.2525 144.725 19.7087 143.43 19.1733C82.4103 -6.10049 23.5996 -4.53675 12.3338 22.6605C9.07093 30.5364 10.148 39.7094 14.8075 49.3838C26.2319 73.1214 59.2144 99.8701 102.568 117.827C106.762 119.564 110.96 121.181 115.152 122.677C140.584 131.759 165.703 136.361 187.016 135.745C199.05 135.398 209.2 133.403 217.191 129.816C225.394 126.134 230.936 120.927 233.664 114.339C236.125 108.396 236.116 101.713 233.96 94.6329L234.881 93.594C237.407 101.398 237.373 108.523 234.773 114.799C231.922 121.678 226.173 127.099 217.681 130.91C209.547 134.562 199.242 136.594 187.052 136.945C185.778 136.981 184.492 137 183.192 137C161.708 137 136.754 131.991 111.647 122.677C108.467 121.498 105.287 120.25 102.108 118.933C72.3253 106.597 46.4717 89.7894 29.3107 71.6063C22.5627 64.4563 17.4504 57.4015 14.0626 50.5688C13.2458 48.9247 12.5306 47.2953 11.917 45.6808C8.60964 36.9818 8.37687 29.0827 11.2272 22.2014V22.2014Z" fill="url(#paint12_radial_8428_17898)"/>
<path d="M11.2272 22.2014C14.0753 15.3222 19.8267 9.9009 28.3162 6.08993C36.4502 2.43767 46.7573 0.406288 58.9478 0.0550274C83.938 -0.666538 114.106 5.72809 143.889 18.0666C146.031 18.9533 148.153 19.8631 150.252 20.7963L147.283 20.8048C146.01 20.2525 144.725 19.7087 143.43 19.1733C82.4103 -6.10049 23.5996 -4.53675 12.3338 22.6605C9.07093 30.5364 10.148 39.7094 14.8075 49.3838C26.2319 73.1214 59.2144 99.8701 102.568 117.827C106.762 119.564 110.96 121.181 115.152 122.677C140.584 131.759 165.703 136.361 187.016 135.745C199.05 135.398 209.2 133.403 217.191 129.816C225.394 126.134 230.936 120.927 233.664 114.339C236.125 108.396 236.116 101.713 233.96 94.6329L234.881 93.594C237.407 101.398 237.373 108.523 234.773 114.799C231.922 121.678 226.173 127.099 217.681 130.91C209.547 134.562 199.242 136.594 187.052 136.945C185.778 136.981 184.492 137 183.192 137C161.708 137 136.754 131.991 111.647 122.677C108.467 121.498 105.287 120.25 102.108 118.933C72.3253 106.597 46.4717 89.7894 29.3107 71.6063C22.5627 64.4563 17.4504 57.4015 14.0626 50.5688C13.2458 48.9247 12.5306 47.2953 11.917 45.6808C8.60964 36.9818 8.37687 29.0827 11.2272 22.2014V22.2014Z" fill="url(#paint13_radial_8428_17898)"/>
<path d="M234.772 22.2014C231.924 15.3222 226.173 9.9009 217.683 6.08993C209.549 2.43767 199.242 0.406288 187.052 0.0550274C162.062 -0.666538 131.893 5.72809 102.11 18.0666C99.9689 18.9533 97.8465 19.8631 95.7474 20.7963L98.7162 20.8048C99.9901 20.2525 101.274 19.7087 102.569 19.1733C163.589 -6.10049 222.4 -4.53675 233.666 22.6605C236.929 30.5364 235.852 39.7094 231.192 49.3838C219.768 73.1214 186.785 99.8701 143.432 117.827C139.238 119.564 135.04 121.181 130.848 122.677C105.416 131.759 80.2962 136.361 58.9836 135.745C46.9498 135.398 36.7992 133.403 28.8091 129.816C20.6052 126.134 15.0634 120.927 12.3358 114.339C9.87486 108.396 9.88332 101.713 12.0396 94.6329L11.1191 93.594C8.59255 101.398 8.6264 108.523 11.227 114.799C14.0773 121.678 19.8265 127.099 28.3181 130.91C36.4521 134.562 46.7572 136.594 58.9476 136.945C60.2215 136.981 61.508 137 62.8073 137C84.2913 137 109.246 131.991 134.352 122.677C137.533 121.498 140.713 120.25 143.891 118.933C173.674 106.597 199.528 89.7894 216.689 71.6063C223.437 64.4563 228.549 57.4015 231.937 50.5688C232.754 48.9247 233.469 47.2953 234.083 45.6808C237.39 36.9818 237.623 29.0827 234.772 22.2014V22.2014Z" fill="url(#paint14_linear_8428_17898)"/>
<path d="M234.772 22.2014C231.924 15.3222 226.173 9.9009 217.683 6.08993C209.549 2.43767 199.242 0.406288 187.052 0.0550274C162.062 -0.666538 131.893 5.72809 102.11 18.0666C99.9689 18.9533 97.8465 19.8631 95.7474 20.7963L98.7162 20.8048C99.9901 20.2525 101.274 19.7087 102.569 19.1733C163.589 -6.10049 222.4 -4.53675 233.666 22.6605C236.929 30.5364 235.852 39.7094 231.192 49.3838C219.768 73.1214 186.785 99.8701 143.432 117.827C139.238 119.564 135.04 121.181 130.848 122.677C105.416 131.759 80.2962 136.361 58.9836 135.745C46.9498 135.398 36.7992 133.403 28.8091 129.816C20.6052 126.134 15.0634 120.927 12.3358 114.339C9.87486 108.396 9.88332 101.713 12.0396 94.6329L11.1191 93.594C8.59255 101.398 8.6264 108.523 11.227 114.799C14.0773 121.678 19.8265 127.099 28.3181 130.91C36.4521 134.562 46.7572 136.594 58.9476 136.945C60.2215 136.981 61.508 137 62.8073 137C84.2913 137 109.246 131.991 134.352 122.677C137.533 121.498 140.713 120.25 143.891 118.933C173.674 106.597 199.528 89.7894 216.689 71.6063C223.437 64.4563 228.549 57.4015 231.937 50.5688C232.754 48.9247 233.469 47.2953 234.083 45.6808C237.39 36.9818 237.623 29.0827 234.772 22.2014V22.2014Z" fill="url(#paint15_radial_8428_17898)"/>
<path d="M234.772 22.2014C231.924 15.3222 226.173 9.9009 217.683 6.08993C209.549 2.43767 199.242 0.406288 187.052 0.0550274C162.062 -0.666538 131.893 5.72809 102.11 18.0666C99.9689 18.9533 97.8465 19.8631 95.7474 20.7963L98.7162 20.8048C99.9901 20.2525 101.274 19.7087 102.569 19.1733C163.589 -6.10049 222.4 -4.53675 233.666 22.6605C236.929 30.5364 235.852 39.7094 231.192 49.3838C219.768 73.1214 186.785 99.8701 143.432 117.827C139.238 119.564 135.04 121.181 130.848 122.677C105.416 131.759 80.2962 136.361 58.9836 135.745C46.9498 135.398 36.7992 133.403 28.8091 129.816C20.6052 126.134 15.0634 120.927 12.3358 114.339C9.87486 108.396 9.88332 101.713 12.0396 94.6329L11.1191 93.594C8.59255 101.398 8.6264 108.523 11.227 114.799C14.0773 121.678 19.8265 127.099 28.3181 130.91C36.4521 134.562 46.7572 136.594 58.9476 136.945C60.2215 136.981 61.508 137 62.8073 137C84.2913 137 109.246 131.991 134.352 122.677C137.533 121.498 140.713 120.25 143.891 118.933C173.674 106.597 199.528 89.7894 216.689 71.6063C223.437 64.4563 228.549 57.4015 231.937 50.5688C232.754 48.9247 233.469 47.2953 234.083 45.6808C237.39 36.9818 237.623 29.0827 234.772 22.2014V22.2014Z" fill="url(#paint16_radial_8428_17898)"/>
</g>
<defs>
<linearGradient id="paint0_linear_8428_17898" x1="122.96" y1="64.0098" x2="122.96" y2="116.064" gradientUnits="userSpaceOnUse">
<stop stop-color="#D9D9D9"/>
<stop offset="1" stop-color="#D9D9D9" stop-opacity="0"/>
</linearGradient>
<linearGradient id="paint1_linear_8428_17898" x1="0.970703" y1="68.5001" x2="245.031" y2="68.5001" gradientUnits="userSpaceOnUse">
<stop stop-color="#996DFF"/>
<stop offset="0.5" stop-color="#35E8B3"/>
<stop offset="1" stop-color="#E2D45C"/>
</linearGradient>
<linearGradient id="paint2_linear_8428_17898" x1="123" y1="78.6988" x2="123" y2="116.593" gradientUnits="userSpaceOnUse">
<stop stop-color="#28203E"/>
<stop offset="1" stop-color="#121214" stop-opacity="0"/>
</linearGradient>
<linearGradient id="paint3_linear_8428_17898" x1="25.6239" y1="52.2439" x2="25.6239" y2="67.1767" gradientUnits="userSpaceOnUse">
<stop stop-color="#A9A9AD"/>
<stop offset="1" stop-color="#A9A9AD" stop-opacity="0"/>
</linearGradient>
<linearGradient id="paint4_linear_8428_17898" x1="54.0596" y1="52.2443" x2="54.0596" y2="67.1771" gradientUnits="userSpaceOnUse">
<stop stop-color="#A9A9AD"/>
<stop offset="1" stop-color="#A9A9AD" stop-opacity="0"/>
</linearGradient>
<linearGradient id="paint5_linear_8428_17898" x1="86.7661" y1="52.2446" x2="86.7661" y2="67.1773" gradientUnits="userSpaceOnUse">
<stop stop-color="#A9A9AD"/>
<stop offset="1" stop-color="#A9A9AD" stop-opacity="0"/>
</linearGradient>
<linearGradient id="paint6_linear_8428_17898" x1="120.978" y1="52.2443" x2="120.978" y2="67.1771" gradientUnits="userSpaceOnUse">
<stop stop-color="#A9A9AD"/>
<stop offset="1" stop-color="#A9A9AD" stop-opacity="0"/>
</linearGradient>
<linearGradient id="paint7_linear_8428_17898" x1="154.551" y1="52.2444" x2="154.551" y2="67.1772" gradientUnits="userSpaceOnUse">
<stop stop-color="#A9A9AD"/>
<stop offset="1" stop-color="#A9A9AD" stop-opacity="0"/>
</linearGradient>
<linearGradient id="paint8_linear_8428_17898" x1="183.006" y1="52.2437" x2="183.006" y2="67.1765" gradientUnits="userSpaceOnUse">
<stop stop-color="#A9A9AD"/>
<stop offset="1" stop-color="#A9A9AD" stop-opacity="0"/>
</linearGradient>
<linearGradient id="paint9_linear_8428_17898" x1="212.475" y1="52.2439" x2="212.475" y2="67.1767" gradientUnits="userSpaceOnUse">
<stop stop-color="#A9A9AD"/>
<stop offset="1" stop-color="#A9A9AD" stop-opacity="0"/>
</linearGradient>
<linearGradient id="paint10_linear_8428_17898" x1="222.413" y1="98.0778" x2="57.5744" y2="98.9242" gradientUnits="userSpaceOnUse">
<stop stop-color="#996DFF"/>
<stop offset="0.5" stop-color="#35E8B3"/>
<stop offset="1" stop-color="#E2D45C"/>
</linearGradient>
<radialGradient id="paint11_radial_8428_17898" cx="0" cy="0" r="1" gradientUnits="userSpaceOnUse" gradientTransform="translate(121.494 125.194) rotate(15.7611) scale(110.808 184.006)">
<stop stop-color="#171226"/>
<stop offset="1" stop-color="#171226" stop-opacity="0"/>
</radialGradient>
<radialGradient id="paint12_radial_8428_17898" cx="0" cy="0" r="1" gradientUnits="userSpaceOnUse" gradientTransform="translate(149.906 21.4063) rotate(-157.036) scale(24.9395 41.414)">
<stop stop-color="#261945"/>
<stop offset="1" stop-color="#261945" stop-opacity="0"/>
</radialGradient>
<radialGradient id="paint13_radial_8428_17898" cx="0" cy="0" r="1" gradientUnits="userSpaceOnUse" gradientTransform="translate(235.142 91.8523) rotate(76.7293) scale(28.2584 46.9253)">
<stop stop-color="#191326"/>
<stop offset="1" stop-color="#191326" stop-opacity="0"/>
</radialGradient>
<linearGradient id="paint14_linear_8428_17898" x1="129.278" y1="15.179" x2="166.123" y2="108.588" gradientUnits="userSpaceOnUse">
<stop stop-color="#996DFF"/>
<stop offset="0.5" stop-color="#35E8B3"/>
<stop offset="1" stop-color="#E2D45C"/>
</linearGradient>
<radialGradient id="paint15_radial_8428_17898" cx="0" cy="0" r="1" gradientUnits="userSpaceOnUse" gradientTransform="translate(93.4715 23.482) rotate(-19.3523) scale(56.3766 93.6179)">
<stop stop-color="#171225"/>
<stop offset="1" stop-color="#171225" stop-opacity="0"/>
</radialGradient>
<radialGradient id="paint16_radial_8428_17898" cx="0" cy="0" r="1" gradientUnits="userSpaceOnUse" gradientTransform="translate(11.2196 93.1496) rotate(67.4706) scale(37.9225 62.9734)">
<stop stop-color="#191327"/>
<stop offset="1" stop-color="#191327" stop-opacity="0"/>
</radialGradient>
<clipPath id="clip0_8428_17898">
<rect width="244.06" height="137" fill="white" transform="translate(0.970703)"/>
</clipPath>
</defs>
</svg>
